<svg width="144" height="60" viewBox="0 0 144 60" fill="none" xmlns="http://www.w3.org/2000/svg">
<mask id="mask0_64_47" style="mask-type:luminance" maskUnits="userSpaceOnUse" x="0" y="0" width="144" height="60">
<path d="M143.154 0.589722H0.846008V59.6408H143.154V0.589722Z" fill="white"/>
</mask>
<g mask="url(#mask0_64_47)">
<path d="M0.846008 0.968262H30.7249C35.6583 0.968262 37.7217 1.15801 39.4987 1.7908C44.2603 3.37136 45.8617 6.08375 45.9224 13.2627C45.9775 19.714 45.0041 22.8258 42.6522 25.0382C40.6466 26.9982 37.7189 27.6946 31.7562 27.6946H9.61975V43.1331H0.846008V0.968262ZM29.2914 19.8534C35.4268 19.8534 37.0462 18.8098 37.033 13.7665C37.0206 9.79418 35.5994 8.80847 29.687 8.80847H9.61975V19.8534H29.2914Z" fill="#1A1718"/>
<path d="M53.4428 0.968262L70.1877 35.4181L87.1622 0.968262H96.9691L75.8079 43.134H64.3948L43.6919 0.968262H53.4428Z" fill="#1A1718"/>
<path d="M103.514 29.7951V30.2372C103.514 32.9552 103.973 34.4115 105.062 35.106C106.439 35.9911 109.426 36.3697 115.041 36.3697C119.012 36.4208 122.981 36.167 126.913 35.6107C129.095 35.2938 130.183 34.8517 130.871 33.9666C131.628 32.9181 132.03 31.6548 132.019 30.3614C132.019 27.8948 131.043 26.6956 128.404 26.0647C126.798 25.6852 126.741 25.6852 116.302 25.6216H110.8C102.714 25.5581 99.5594 24.8627 97.4361 22.7138C95.6023 20.9435 94.7418 18.289 94.7418 14.5549C94.7418 9.87767 95.774 6.02113 97.6088 4.24988C100.185 1.60106 106.033 0.589722 118.65 0.589722C126.335 0.589722 130.464 0.905645 133.101 1.7908C137.862 3.30875 139.524 6.1549 139.524 12.6641V13.4866H130.923C130.865 11.0199 130.291 9.75718 129.088 9.12249C127.483 8.29901 123.81 7.79429 119.566 7.79429C112.341 7.79429 107.294 8.29901 105.573 9.24772C104.197 9.94218 103.509 11.3956 103.509 13.3566C103.509 15.1905 104.025 16.3925 105.114 17.0879C106.434 17.9086 108.612 18.1609 114.634 18.1609H121.114C132.584 18.1609 136.082 18.8554 138.491 21.6996C140.099 23.5335 140.843 26.3161 140.843 30.4876C140.843 34.9124 139.982 37.9455 138.092 39.9682C135.57 42.6246 130.637 43.5097 117.734 43.5097C103.971 43.5097 99.6694 42.8134 97.2606 40.2841C95.5396 38.4512 94.7939 35.92 94.7939 31.9411C94.7939 31.5616 94.7939 30.6129 94.8518 29.7922L103.514 29.7951Z" fill="#1A1718"/>
<path d="M59.0254 3.86938H81.5916L70.2354 26.7335L59.0254 3.86938Z" fill="#E3001B"/>
<path d="M5.43215 51.8689C3.73015 51.8689 3.34497 52.8119 3.05182 54.0841C2.95518 54.4367 2.89979 54.7993 2.88674 55.1647C2.88674 55.8639 3.23112 56.3212 4.3952 56.3212H7.23092L6.96812 57.4663H3.86771C1.93233 57.4663 1.2113 56.5736 1.2113 55.2131C1.22412 54.7896 1.27974 54.3684 1.37733 53.956C1.85169 51.7939 2.66474 50.7304 5.29269 50.7304H8.36369L8.10184 51.8689H5.43215Z" fill="#323232"/>
<path d="M9.99751 48.5598H11.616L11.1198 50.7228H13.1805C14.6206 50.7228 15.6841 51.2067 15.6841 52.4305C15.6866 52.6311 15.6682 52.8314 15.6291 53.0282L14.6073 57.4663H12.986L13.9262 53.4191C13.9773 53.2155 14.005 53.0066 14.0087 52.7967C14.0087 52.1469 13.6216 51.867 12.7516 51.867H10.8542L9.55256 57.4644H7.935L9.99751 48.5598Z" fill="#323232"/>
<path d="M18.6185 57.4644C16.8881 57.4644 16.279 56.7254 16.279 55.4787C16.295 54.9637 16.365 54.4518 16.4877 53.9513C17.1091 51.2816 18.203 50.645 20.6934 50.645C22.4959 50.645 23.8346 51.1194 23.8346 52.6544C23.8389 52.9196 23.8112 53.1843 23.752 53.4428C23.712 53.7853 23.5381 54.0981 23.2683 54.3128C22.9985 54.5275 22.6546 54.6268 22.3119 54.5888H18.0502C17.9889 54.8427 17.9571 55.1028 17.9554 55.3639C17.9554 55.9493 18.2334 56.3184 19.2295 56.3184H22.8062L22.5462 57.4644H18.6185ZM21.6762 53.4428C21.7321 53.4476 21.7884 53.4412 21.8418 53.4239C21.8951 53.4067 21.9445 53.3789 21.987 53.3424C22.0295 53.3058 22.0643 53.2611 22.0893 53.2109C22.1143 53.1607 22.129 53.106 22.1326 53.05C22.1479 52.9447 22.1571 52.8386 22.1601 52.7322C22.1601 52.032 21.4277 51.7901 20.5691 51.7901C19.1859 51.7901 18.5768 52.2986 18.314 53.4437L21.6762 53.4428Z" fill="#323232"/>
<path d="M25.0791 51.8689C25.0982 51.6927 25.153 51.5223 25.2402 51.3681C25.3274 51.2138 25.4452 51.079 25.5863 50.9719C25.7275 50.8648 25.889 50.7876 26.061 50.7451C26.233 50.7026 26.4119 50.6957 26.5866 50.7247H32.8008C34.2532 50.7247 35.3187 51.2209 35.3187 52.4428C35.3215 52.6394 35.3027 52.8357 35.2627 53.0282L34.2238 57.4663H32.6053L33.5455 53.42C33.5974 53.2249 33.6257 53.0242 33.6299 52.8223C33.6299 52.1734 33.241 51.867 32.37 51.867H31.112L29.8113 57.4644H28.1919L29.4935 51.867H27.1122C26.9948 51.8537 26.8767 51.8855 26.7818 51.956C26.6869 52.0264 26.6222 52.1302 26.6009 52.2465L25.397 57.4644H23.7784L25.0791 51.8689Z" fill="#323232"/>
<path d="M37.0615 50.722H38.68L37.1165 57.4654H35.498L37.0615 50.722ZM37.2512 49.8311L37.57 48.4583H39.1885L38.8697 49.8311H37.2512Z" fill="#323232"/>
<path d="M38.4722 56.3203H42.5953C42.9273 56.3203 43.3154 56.27 43.4254 55.8374C43.4511 55.7446 43.4652 55.649 43.4672 55.5527C43.4672 55.1733 42.7347 54.955 42.0972 54.7644L40.9085 54.4086C39.7178 54.0519 39.1913 53.531 39.1913 52.8062C39.187 52.6441 39.1965 52.4819 39.2197 52.3214C39.4266 51.0881 40.1599 50.72 41.7813 50.72H45.9186L45.653 51.8689H41.7633C41.2377 51.8689 40.9891 51.9713 40.8914 52.4163C40.8777 52.4919 40.8685 52.5682 40.8639 52.6449C40.8639 53.0785 41.4331 53.2436 41.7917 53.3451L43.1332 53.7397C44.2271 54.0566 45.1397 54.4143 45.1397 55.419C45.1456 55.5729 45.1315 55.7269 45.098 55.8772C44.8627 56.9075 44.4339 57.4682 42.8979 57.4682H38.2075L38.4722 56.3203Z" fill="#323232"/>
<path d="M48.7811 57.4662C47.3409 57.4662 46.3865 56.9577 46.3865 55.8373C46.3894 55.6456 46.4129 55.4547 46.4567 55.2681L47.2461 51.8707H46.2347L46.4975 50.7266H47.507L48.0051 48.5635H49.6226L49.1255 50.7266H51.2127L50.9508 51.8669H48.8636L48.1445 54.9578C48.1072 55.1132 48.0884 55.2724 48.0885 55.4322C48.0885 56.1067 48.5866 56.3211 49.5116 56.3211H49.9129L49.6492 57.4681L48.7811 57.4662Z" fill="#323232"/>
<path d="M51.3814 53.2673C51.8235 51.3338 52.8329 50.7228 54.9381 50.7228H56.0291L55.7663 51.8689H55.088C54.8272 51.842 54.5636 51.8672 54.3126 51.9431C54.0617 52.019 53.8283 52.1441 53.6261 52.311C53.4239 52.478 53.257 52.6835 53.135 52.9156C53.013 53.1477 52.9383 53.4017 52.9154 53.6629L52.0322 57.4663H50.4127L51.3814 53.2673Z" fill="#323232"/>
<path d="M58.161 59.6408H56.515L58.1468 57.4388L56.4305 50.7228H58.05L59.2131 55.9484L62.8942 50.7191H64.5952L58.161 59.6408Z" fill="#323232"/>
<path d="M67.0297 57.4662L68.3152 51.8688H67.2935L67.5695 50.7246H68.5923C68.9945 48.8167 70.3787 48.4619 72.315 48.4619C72.4545 48.4619 72.5921 48.4723 72.7315 48.4723L72.482 49.5662C72.3899 49.5574 72.2974 49.5539 72.205 49.5558C71.3189 49.5558 70.4622 49.6184 70.2127 50.7256H72.2202L71.9441 51.8697H69.9347L68.6482 57.4671L67.0297 57.4662Z" fill="#323232"/>
<path d="M79.7595 52.9884C79.7556 53.3988 79.7092 53.8076 79.621 54.2085C78.9977 57.0328 77.6847 57.5413 75.0548 57.5413C72.8832 57.5413 71.6802 56.9313 71.6802 55.1875C71.6836 54.7728 71.7294 54.3596 71.8169 53.9542C72.4402 51.1574 73.7409 50.6489 76.3707 50.6489C78.5527 50.6489 79.7605 51.2598 79.7605 52.9903M73.3547 55.0632C73.3547 56.0044 73.8945 56.3981 75.182 56.3981C76.8403 56.3981 77.5746 55.734 77.9475 54.0842C78.0281 53.7681 78.0752 53.4443 78.0879 53.1184C78.0879 52.1763 77.5329 51.7902 76.2474 51.7902C74.5871 51.7902 73.8756 52.4268 73.4961 54.0813C73.4159 54.402 73.3692 54.7301 73.3566 55.0604" fill="#323232"/>
<path d="M80.88 53.2673C81.323 51.3338 82.3334 50.7228 84.4357 50.7228H85.5296L85.2659 51.8689H84.5885C84.3276 51.842 84.064 51.8672 83.813 51.9431C83.5619 52.019 83.3285 52.144 83.1262 52.311C82.924 52.4779 82.7569 52.6834 82.6348 52.9155C82.5127 53.1476 82.438 53.4017 82.415 53.6629L81.5298 57.4663H79.9113L80.88 53.2673Z" fill="#323232"/>
<path d="M94.6742 56.3202C94.6564 56.497 94.6023 56.6682 94.5154 56.8232C94.4285 56.9783 94.3107 57.1137 94.1692 57.2212C94.0277 57.3287 93.8656 57.406 93.6929 57.4481C93.5203 57.4903 93.3409 57.4964 93.1657 57.4662H90.7446C88.9174 57.4662 88.2277 56.5735 88.2277 55.2254C88.2392 54.7965 88.2946 54.3699 88.3927 53.9522C88.8671 51.7901 89.6802 50.7266 92.1686 50.7266H94.3564L94.8516 48.5635H96.472L94.6742 56.3202ZM92.309 51.8669C90.7456 51.8669 90.3575 52.8099 90.0672 54.0822C89.9699 54.4476 89.9139 54.8228 89.9003 55.2007C89.9003 55.8876 90.22 56.3192 91.2711 56.3192H92.6411C92.7587 56.333 92.8772 56.3014 92.9723 56.2309C93.0675 56.1604 93.1323 56.0563 93.1534 55.9398L94.0945 51.8669H92.309Z" fill="#323232"/>
<path d="M101.729 50.7227C101.939 50.6925 102.154 50.7088 102.357 50.7704C102.561 50.8319 102.748 50.9373 102.906 51.0791C103.065 51.2209 103.19 51.3956 103.274 51.5911C103.357 51.7865 103.397 51.9979 103.39 52.2103C103.392 52.3773 103.374 52.544 103.335 52.7065L102.491 56.3201C102.471 56.4959 102.415 56.6658 102.328 56.8196C102.24 56.9734 102.122 57.1078 101.981 57.2149C101.841 57.322 101.68 57.3995 101.508 57.4426C101.336 57.4858 101.158 57.4938 100.983 57.4662H97.4264C97.2213 57.4926 97.013 57.4722 96.8169 57.4065C96.6209 57.3408 96.4423 57.2315 96.2946 57.0869C96.1468 56.9423 96.0338 56.7661 95.964 56.5715C95.8941 56.3769 95.8693 56.169 95.8913 55.9634C95.8837 55.7205 95.9025 55.4775 95.9473 55.2386C95.9943 54.6716 96.2635 54.1462 96.6962 53.7769C97.129 53.4076 97.6902 53.2244 98.2575 53.2672H101.578L101.689 52.8345C101.714 52.7346 101.727 52.6321 101.729 52.5291C101.729 52.0964 101.454 51.8649 100.887 51.8649H97.3021L97.5658 50.7208L101.729 50.7227ZM98.617 54.4123C98.0639 54.4123 97.7859 54.6551 97.6209 55.3154C97.5809 55.4606 97.558 55.6099 97.5526 55.7604C97.5526 56.1294 97.7423 56.3201 98.1749 56.3201H100.457C100.574 56.3336 100.693 56.3019 100.788 56.2315C100.883 56.161 100.948 56.0571 100.969 55.9406L101.315 54.4142L98.617 54.4123Z" fill="#323232"/>
<path d="M105.066 50.722H106.679L105.116 57.4654H103.496L105.066 50.722ZM105.256 49.8311L105.573 48.4583H107.192L106.874 49.8311H105.256Z" fill="#323232"/>
<path d="M108.454 48.5598H110.073L108.008 57.4663H106.395L108.454 48.5598Z" fill="#323232"/>
<path d="M111.788 59.6408H110.142L111.775 57.4388L110.059 50.7228H111.677L112.839 55.9522L116.522 50.7228H118.222L111.788 59.6408Z" fill="#323232"/>
<path d="M122.457 48.5598H124.069L122.008 57.4663H120.395L122.457 48.5598Z" fill="#323232"/>
<path d="M124.851 50.722H126.47L124.905 57.4654H123.286L124.851 50.722ZM125.041 49.8311L125.359 48.4583H126.979L126.661 49.8311H125.041Z" fill="#323232"/>
<path d="M126.442 57.4662L127.728 51.8688H126.704L126.981 50.7246H128.007C128.409 48.8167 129.793 48.4619 131.728 48.4619C131.868 48.4619 132.006 48.4723 132.145 48.4723L131.893 49.5662C131.802 49.5574 131.711 49.5539 131.619 49.5558C130.734 49.5558 129.876 49.6184 129.627 50.7256H131.633L131.356 51.8697H129.35L128.063 57.4671L126.442 57.4662Z" fill="#323232"/>
<path d="M133.429 57.4644C131.702 57.4644 131.092 56.7254 131.092 55.4787C131.107 54.9637 131.177 54.4518 131.299 53.9513C131.922 51.2816 133.017 50.645 135.506 50.645C137.309 50.645 138.644 51.1194 138.644 52.6544C138.649 52.9195 138.622 53.1842 138.563 53.4428C138.523 53.7851 138.35 54.0979 138.08 54.3127C137.811 54.5274 137.467 54.6267 137.125 54.5888H132.864C132.802 54.8426 132.77 55.1028 132.769 55.3639C132.769 55.9493 133.047 56.3184 134.043 56.3184H137.622L137.359 57.4644H133.429ZM136.487 53.4428C136.543 53.4476 136.599 53.4412 136.652 53.4239C136.706 53.4067 136.755 53.3789 136.798 53.3424C136.84 53.3058 136.875 53.2611 136.9 53.2109C136.925 53.1607 136.94 53.106 136.943 53.05C136.959 52.9447 136.968 52.8386 136.971 52.7322C136.971 52.032 136.237 51.7901 135.38 51.7901C133.997 51.7901 133.388 52.2986 133.127 53.4437L136.487 53.4428Z" fill="#323232"/>
<path d="M139.171 50.5408V48.6291H138.429V48.2401H140.422V48.6291H139.683V50.5408H139.171Z" fill="#323232"/>
<path d="M140.733 50.5408V48.2392H141.492L141.946 49.8084L142.395 48.2392H143.154V50.5408H142.68V48.7306L142.183 50.5408H141.699L141.203 48.7306V50.5408H140.733Z" fill="#323232"/>
</g>
</svg>
