<svg width="30" height="30" viewBox="0 0 30 30" fill="none" xmlns="http://www.w3.org/2000/svg">
<path d="M18.1138 19.375H18.125M11.875 19.375H11.8862" stroke="#057B82" stroke-width="3" stroke-linecap="round" stroke-linejoin="round"/>
<path d="M5.33476 23.5559C5.61586 25.6437 7.34516 27.2794 9.44957 27.3761C11.2203 27.4575 13.0191 27.5 15 27.5C16.9809 27.5 18.7796 27.4575 20.5504 27.3761C22.6549 27.2794 24.3841 25.6437 24.6653 23.5559C24.8488 22.1934 25 20.797 25 19.375C25 17.953 24.8488 16.5566 24.6653 15.1941C24.3841 13.1063 22.6549 11.4706 20.5504 11.3739C18.7796 11.2925 16.9809 11.25 15 11.25C13.0191 11.25 11.2203 11.2925 9.44957 11.3739C7.34516 11.4706 5.61586 13.1063 5.33476 15.1941C5.15131 16.5566 5 17.953 5 19.375C5 20.797 5.15131 22.1934 5.33476 23.5559Z" stroke="#057B82" stroke-width="2.5"/>
<path d="M9.375 11.25V8.125C9.375 5.0184 11.8934 2.5 15 2.5C18.1066 2.5 20.625 5.0184 20.625 8.125V11.25" stroke="#057B82" stroke-width="2.5" stroke-linecap="round" stroke-linejoin="round"/>
</svg>